<svg width="35" height="71" viewBox="0 0 35 71" fill="none" xmlns="http://www.w3.org/2000/svg">
<path d="M3.72226 47.0793C9.732 52.9964 11.2005 55.6423 11.3867 65.2671C11.4155 66.7544 12.337 68.098 13.7473 68.571C19.4492 70.4833 22.8512 70.7521 28.1162 68.6483C29.3935 68.1379 30.1845 66.8684 30.1845 65.4929V53.8064C30.1845 53.5649 30.2108 53.3158 30.2605 53.0794C32.8687 40.6645 34.4587 41.6063 33.2459 24.27C33.0418 20.3175 27.1232 20.3175 27.1232 24.27V22.0114C27.1232 18.4353 20.7965 18.4353 20.7965 22.0114V19.941C20.7965 15.4239 13.8575 15.4239 13.8575 19.941L13.8575 4.9231C13.8575 -0.307696 6.91854 -0.307697 6.91854 4.9231L6.91854 25.0228C6.91854 20.6939 1 20.6939 1 25.0228L1 40.6679C1 43.0826 2.00161 45.3851 3.72226 47.0793Z" fill="#CAD0DC"/>
<path d="M6.91854 25.0228C6.91854 20.6939 1 20.6939 1 25.0228L1 40.6679C1 43.0826 2.00161 45.3851 3.72226 47.0793C9.732 52.9964 11.2005 55.6423 11.3867 65.2671C11.4155 66.7544 12.337 68.098 13.7473 68.571C19.4492 70.4833 22.8512 70.7521 28.1162 68.6483C29.3935 68.1379 30.1845 66.8684 30.1845 65.4929V53.8064C30.1845 53.5649 30.2108 53.3158 30.2605 53.0794C32.8687 40.6645 34.4587 41.6063 33.2459 24.27C33.0418 20.3175 27.1232 20.3175 27.1232 24.27M6.91854 25.0228V36.6921M6.91854 25.0228L6.91854 4.9231C6.91854 -0.307697 13.8575 -0.307696 13.8575 4.9231L13.8575 19.941M13.8575 28.2225V19.941M13.8575 19.941C13.8575 15.4239 20.7965 15.4239 20.7965 19.941V22.0114M20.7965 28.2225V22.0114M20.7965 22.0114C20.7965 18.4353 27.1232 18.4353 27.1232 22.0114V24.27M27.1232 28.2225V24.27" stroke="#223343" stroke-width="0.885462" stroke-linecap="round" stroke-linejoin="round"/>
</svg>
