<svg width="18" height="19" viewBox="0 0 18 19" fill="none" xmlns="http://www.w3.org/2000/svg">
<path fill-rule="evenodd" clip-rule="evenodd" d="M12.2527 0.994751C11.7004 0.994751 11.2527 1.44247 11.2527 1.99475C11.2527 2.54704 11.7004 2.99475 12.2527 2.99475H13.7149L8.99399 7.92385C8.61198 8.3227 8.62564 8.95572 9.02449 9.33773C9.42335 9.71974 10.0564 9.70609 10.4384 9.30723L15.0574 4.48457V5.74653C15.0574 6.29882 15.5051 6.74653 16.0574 6.74653C16.6096 6.74653 17.0574 6.29882 17.0574 5.74653V1.99475C17.0574 1.44247 16.6096 0.994751 16.0574 0.994751H12.2527ZM3 7.76103C3 6.10418 4.34315 4.76103 6 4.76103H10.0176C10.5698 4.76103 11.0176 4.31332 11.0176 3.76103C11.0176 3.20875 10.5698 2.76103 10.0176 2.76103H6C3.23858 2.76103 1 4.99961 1 7.76103V13.0026C1 15.764 3.23858 18.0026 6 18.0026H10.6824C13.4438 18.0026 15.6824 15.764 15.6824 13.0026V8.63141C15.6824 8.07912 15.2346 7.63141 14.6824 7.63141C14.1301 7.63141 13.6824 8.07912 13.6824 8.63141V13.0026C13.6824 14.6595 12.3392 16.0026 10.6824 16.0026H6C4.34315 16.0026 3 14.6595 3 13.0026V7.76103Z" fill="#00B2CD"/>
</svg>
