<?xml version="1.0" standalone="no"?>
<!DOCTYPE svg PUBLIC "-//W3C//DTD SVG 20010904//EN"
 "http://www.w3.org/TR/2001/REC-SVG-20010904/DTD/svg10.dtd">
<svg version="1.0" xmlns="http://www.w3.org/2000/svg"
 width="160.000000pt" height="160.000000pt" viewBox="0 0 160.000000 160.000000"
 preserveAspectRatio="xMidYMid meet">
<metadata>
Created by potrace 1.14, written by Peter Selinger 2001-2017
</metadata>
<g transform="translate(0.000000,160.000000) scale(0.100000,-0.100000)"
fill="#000000" stroke="none">
<path d="M158 979 c-56 -16 -123 -80 -142 -136 -46 -134 10 -268 130 -312 65
-25 94 -26 162 -6 61 19 106 54 132 106 33 64 30 69 -51 69 -61 0 -75 -3 -101
-25 -63 -53 -131 -15 -132 74 -1 39 4 55 23 75 32 34 79 35 111 1 21 -22 31
-25 98 -25 l75 0 -7 32 c-9 43 -53 98 -103 126 -47 26 -141 36 -195 21z"/>
<path d="M520 750 l0 -230 75 0 75 0 1 103 1 102 33 -100 32 -100 66 -3 65 -3
35 108 35 108 1 -107 1 -108 75 0 75 0 0 230 0 230 -92 0 -93 0 -49 -135 c-27
-75 -50 -134 -52 -132 -2 2 -25 61 -52 133 l-49 129 -92 3 -91 3 0 -231z"/>
<path d="M1150 750 l0 -230 134 0 c157 0 199 13 258 78 98 108 67 287 -61 354
-51 27 -60 28 -192 28 l-139 0 0 -230z m263 80 c32 -26 42 -78 23 -125 -16
-37 -47 -55 -97 -55 l-29 0 0 100 0 100 39 0 c23 0 48 -8 64 -20z"/>
</g>
</svg>
